<?xml version="1.0" encoding="UTF-8"?>
<svg xmlns="http://www.w3.org/2000/svg" xmlns:xlink="http://www.w3.org/1999/xlink" viewBox="0 0 48 48" width="48px" height="48px">
<g id="surface73483748">
<path style=" stroke:none;fill-rule:nonzero;fill:#f1f1f1;fill-opacity:1;" d="M 13.441406 3.839844 C 8.148438 3.839844 3.839844 8.148438 3.839844 13.441406 L 3.839844 34.558594 C 3.839844 39.851562 8.148438 44.160156 13.441406 44.160156 L 34.558594 44.160156 C 39.851562 44.160156 44.160156 39.851562 44.160156 34.558594 L 44.160156 13.441406 C 44.160156 8.148438 39.851562 3.839844 34.558594 3.839844 Z M 12.480469 15.359375 L 35.519531 15.359375 C 35.691406 15.359375 35.855469 15.378906 36.007812 15.425781 L 26.574219 24.855469 C 25.152344 26.277344 22.839844 26.277344 21.417969 24.855469 L 11.992188 15.425781 C 12.144531 15.378906 12.308594 15.359375 12.480469 15.359375 Z M 10.628906 16.789062 L 17.847656 24 L 10.628906 31.210938 C 10.578125 31.054688 10.558594 30.894531 10.558594 30.71875 L 10.558594 17.28125 C 10.558594 17.105469 10.578125 16.945312 10.628906 16.789062 Z M 37.371094 16.789062 C 37.421875 16.945312 37.441406 17.105469 37.441406 17.28125 L 37.441406 30.71875 C 37.441406 30.894531 37.421875 31.054688 37.371094 31.210938 L 30.144531 24 Z M 19.199219 25.355469 L 20.054688 26.21875 C 21.140625 27.304688 22.570312 27.839844 23.992188 27.839844 C 25.421875 27.839844 26.839844 27.304688 27.925781 26.21875 L 28.789062 25.355469 L 36.007812 32.574219 C 35.855469 32.621094 35.691406 32.640625 35.519531 32.640625 L 12.480469 32.640625 C 12.308594 32.640625 12.144531 32.621094 11.992188 32.574219 Z M 19.199219 25.355469 "/>
</g>
</svg>
