<svg width="375" height="718" viewBox="0 0 375 718" fill="none" xmlns="http://www.w3.org/2000/svg">
<path fill-rule="evenodd" clip-rule="evenodd" d="M22.9222 5.59126L0 21.4605V717.5H377V21.4605L351.921 4.94485C342.205 -1.45351 329.665 -1.65779 319.746 4.4207L254.902 44.157C213.541 69.5025 161.459 69.5025 120.098 44.157L55.6733 4.67776C45.5392 -1.53238 32.6944 -1.17411 22.9222 5.59126ZM45 26C45 29.866 42.5376 33 39.5 33C36.4624 33 34 29.866 34 26C34 22.134 36.4624 19 39.5 19C42.5376 19 45 22.134 45 26ZM338.5 32C341.538 32 344 28.866 344 25C344 21.134 341.538 18 338.5 18C335.462 18 333 21.134 333 25C333 28.866 335.462 32 338.5 32Z" fill="#F1F1F1"/>
</svg>
