<svg width="11" height="26" viewBox="0 0 11 26" fill="none" xmlns="http://www.w3.org/2000/svg">
<path d="M2 12H9V26H2V12Z" fill="#FF9A00"/>
<path d="M2 0H9V14H2V0Z" fill="#FF9A00"/>
<path d="M9.5 0C9.69168 1.32781 10.0466 2.38805 10.1917 3.54636C10.3398 4.72934 10.3996 6.12796 10.3791 7.5464C10.3586 8.96563 10.2576 10.4154 10.0809 11.702C9.91114 12.9387 9.66733 14.0564 9.34212 14.8534C9.58092 15.2966 9.73108 15.8994 9.82704 16.5632C9.93375 17.3015 10.1106 19.0002 10.1106 20.123C10.1106 22.623 9.8002 24.0964 9.5 26H8.5C8.7932 24.1408 8.98164 20.9147 8.98117 19.1067C8.98094 18.2023 8.93494 17.3816 8.83732 16.7063C8.81201 16.5312 8.78368 16.3694 8.75277 16.2209C7.81862 17.9387 7.16225 19.0912 5.66819 20.123C4.2745 21.485 3.32177 22.7986 2.81756 24.0341C2.71135 24.3653 2.5 25.5 2.5 26H1.5C0.988814 25.2093 0.739471 23.3166 0.544317 22.0331C0.347095 20.7361 0.279241 19.2627 0.325361 17.813C0.371478 16.3635 0.532004 14.9237 0.797743 13.694C1.04197 12.5638 1.38695 11.5526 1.85475 10.885C1.22765 9.82383 0.975309 8.18755 0.945789 6.46845C0.914659 4.65562 1.12604 1.75315 1.49998 0L2.64131 0.00927734C2.28164 1.6955 1.91594 4.72137 1.94564 6.45129C1.96372 7.50406 2.06925 8.44711 2.2629 9.20703C2.41857 8.66407 2.58345 8.14349 2.80654 7.64322C3.22858 6.69679 3.86024 5.8025 5.02184 4.7933L5.04775 4.7708L5.07648 4.75204C5.84068 4.25325 6.42034 3.82935 6.95106 3.25493C7.20448 2.98064 7.45101 2.66729 7.70151 2.2887C7.96408 1.84008 8.5 1 8.5 0H9.5Z" fill="#764905"/>
<path d="M9.5 3L9 1C8.75731 2.13276 7.5537 3.79274 6 5.50001C4.5 6.50001 4 7.00001 3 10C0.499993 14.5 0.500001 20 2 25C2.44754 22.857 2.88932 21.1943 5.5 19.5C7 18 8.19895 15.6748 9 14C10.1839 9.79609 9.87316 8.91596 9.5 3Z" fill="#FF9A00"/>
</svg>
