<svg width="192" height="112" viewBox="0 0 192 112" fill="none" xmlns="http://www.w3.org/2000/svg">
<path d="M139.428 22.647H145.968V20.571H139.428V22.647ZM144.504 17.595V25.995H146.832V17.595H144.504ZM138.864 17.595V25.995H141.192V17.595H138.864ZM150.139 25.995H154.375V24.111H150.139V25.995ZM150.139 19.479H154.375V17.595H150.139V19.479ZM150.139 22.539H154.135V20.715H150.139V22.539ZM148.555 17.595V25.995H150.787V17.595H148.555ZM155.985 17.595V25.995H161.709V24.015H158.313V17.595H155.985ZM162.594 17.595V25.995H168.318V24.015H164.922V17.595H162.594ZM170.821 21.795C170.821 21.339 170.909 20.939 171.085 20.595C171.261 20.251 171.509 19.983 171.829 19.791C172.149 19.591 172.525 19.491 172.957 19.491C173.413 19.491 173.797 19.591 174.109 19.791C174.429 19.983 174.673 20.251 174.841 20.595C175.009 20.939 175.093 21.339 175.093 21.795C175.093 22.243 175.005 22.643 174.829 22.995C174.653 23.339 174.405 23.611 174.085 23.811C173.773 24.003 173.397 24.099 172.957 24.099C172.525 24.099 172.149 24.003 171.829 23.811C171.509 23.611 171.261 23.339 171.085 22.995C170.909 22.643 170.821 22.243 170.821 21.795ZM168.361 21.795C168.361 22.451 168.473 23.055 168.697 23.607C168.921 24.159 169.237 24.639 169.645 25.047C170.061 25.447 170.549 25.759 171.109 25.983C171.669 26.199 172.285 26.307 172.957 26.307C173.629 26.307 174.245 26.199 174.805 25.983C175.373 25.759 175.861 25.447 176.269 25.047C176.677 24.639 176.993 24.159 177.217 23.607C177.441 23.055 177.553 22.451 177.553 21.795C177.553 21.131 177.437 20.531 177.205 19.995C176.981 19.451 176.661 18.987 176.245 18.603C175.829 18.211 175.341 17.911 174.781 17.703C174.229 17.487 173.621 17.379 172.957 17.379C172.309 17.379 171.705 17.487 171.145 17.703C170.593 17.911 170.109 18.211 169.693 18.603C169.277 18.987 168.949 19.451 168.709 19.995C168.477 20.531 168.361 21.131 168.361 21.795Z" fill="#4F8B40"/>
<path d="M126.5 24.495C128.683 4.45344 132.605 -0.402032 157.5 2.99503C180.63 2.27982 184.887 5.39716 190 19.495C189.713 34.5801 186.164 40.3758 168 39.995C161.694 51.6154 155.69 55.2287 141 56.995C148.733 49.7164 152.569 45.7188 151 39.995C137.802 39.3947 133.398 38.5668 126.5 24.495Z" stroke="#4F8B40" stroke-width="3"/>
<rect x="30" y="29.995" width="21" height="21" fill="#4F8B40"/>
<rect y="69.995" width="21" height="21" fill="#4F8B40"/>
<rect x="21" y="90.995" width="90" height="21" fill="#4F8B40"/>
<rect x="111" y="69.995" width="21" height="21" fill="#4F8B40"/>
<rect x="78" y="29.995" width="21" height="21" fill="#4F8B40"/>
</svg>
