<?xml version="1.0" encoding="UTF-8"?>
<svg xmlns="http://www.w3.org/2000/svg" xmlns:xlink="http://www.w3.org/1999/xlink" viewBox="0 0 48 48" width="48px" height="48px" fill="currentColor">
<g id="surface73134974">
<path style=" stroke:none;fill-rule:nonzero;fill-opacity:1;" d="M 39.359375 3.839844 L 8.640625 3.839844 C 5.992188 3.839844 3.839844 5.992188 3.839844 8.640625 L 3.839844 39.359375 C 3.839844 42.007812 5.992188 44.160156 8.640625 44.160156 L 39.359375 44.160156 C 42.007812 44.160156 44.160156 42.007812 44.160156 39.359375 L 44.160156 8.640625 C 44.160156 5.992188 42.007812 3.839844 39.359375 3.839844 Z M 16.320312 19.199219 L 16.320312 37.441406 L 10.558594 37.441406 L 10.558594 19.199219 Z M 10.558594 13.890625 C 10.558594 12.546875 11.710938 11.519531 13.441406 11.519531 C 15.167969 11.519531 16.253906 12.546875 16.320312 13.890625 C 16.320312 15.234375 15.246094 16.320312 13.441406 16.320312 C 11.710938 16.320312 10.558594 15.234375 10.558594 13.890625 Z M 37.441406 37.441406 L 31.679688 37.441406 C 31.679688 37.441406 31.679688 28.550781 31.679688 27.839844 C 31.679688 25.921875 30.71875 24 28.320312 23.960938 L 28.242188 23.960938 C 25.921875 23.960938 24.960938 25.9375 24.960938 27.839844 C 24.960938 28.714844 24.960938 37.441406 24.960938 37.441406 L 19.199219 37.441406 L 19.199219 19.199219 L 24.960938 19.199219 L 24.960938 21.65625 C 24.960938 21.65625 26.8125 19.199219 30.539062 19.199219 C 34.347656 19.199219 37.441406 21.820312 37.441406 27.128906 Z M 37.441406 37.441406 "/>
</g>
</svg>
